<svg width="128" height="128" viewBox="0 0 128 128" fill="none" xmlns="http://www.w3.org/2000/svg">
<rect width="128" height="128" rx="32" fill="url(#paint0_linear_222_2)"/>
<g filter="url(#filter0_i_222_2)">
<rect x="8" y="8" width="112" height="112" rx="24" fill="black" fill-opacity="0.7"/>
<mask id="mask0_222_2" style="mask-type:alpha" maskUnits="userSpaceOnUse" x="8" y="10" width="108" height="108">
<path d="M43.7762 93.1883C43.7115 93.1883 43.6409 93.1766 43.5703 93.1589C36.485 90.9992 28.8113 83.2549 27.146 76.5874C27.0517 76.2109 27.2812 75.8342 27.6519 75.74C28.0286 75.6459 28.4052 75.8754 28.4995 76.2461C30.0354 82.3956 37.4149 89.8163 43.9763 91.8231C44.3471 91.9349 44.553 92.3233 44.4412 92.694C44.3529 92.9941 44.0763 93.1883 43.7762 93.1883Z" fill="#975500"/>
<path d="M47.1541 101.974C47.1011 101.974 47.0482 101.969 46.9952 101.957C41.134 100.591 34.3195 96.2133 28.3052 89.9401C22.6794 84.079 19.0367 77.841 18.8013 73.6629C18.7778 73.2803 19.072 72.945 19.4604 72.9273C19.8429 72.9038 20.1784 73.198 20.196 73.5864C20.4079 77.388 23.9858 83.4257 29.3115 88.975C35.1432 95.0599 41.7048 99.291 47.313 100.597C47.6896 100.686 47.9251 101.062 47.8368 101.439C47.7602 101.757 47.4719 101.974 47.1541 101.974Z" fill="#975500"/>
<path d="M77.1959 40.8259C76.884 40.8259 76.6015 40.62 76.5191 40.308C75.5363 36.5772 71.0698 31.222 67.0035 30.1745C66.6328 30.0803 66.4032 29.6978 66.5033 29.3212C66.6034 28.9445 66.9799 28.721 67.3565 28.821C71.9349 30.0039 76.7721 35.7768 77.8726 39.955C77.9727 40.3257 77.7491 40.7082 77.3724 40.8082C77.3136 40.8201 77.2547 40.8259 77.1959 40.8259Z" fill="#975500"/>
<path d="M86.0052 42.0673C85.6933 42.0673 85.4108 41.8555 85.3284 41.5435C82.7097 31.2335 72.9175 23.189 67.327 22.1886C66.9444 22.118 66.6972 21.759 66.762 21.3765C66.8326 20.994 67.1916 20.7469 67.574 20.8116C73.6648 21.9061 83.8808 30.1977 86.6819 41.1963C86.776 41.573 86.5525 41.9496 86.1758 42.0439C86.117 42.0614 86.064 42.0673 86.0052 42.0673Z" fill="#975500"/>
<path d="M68.6157 60.387C69.7397 61.6286 70.7519 63.2587 70.3222 63.6883C69.8926 64.1179 68.5745 63.3411 67.5682 62.3288C66.5619 61.3226 64.155 72.0329 63.9197 72.5743C63.7431 72.9803 60.942 76.1933 59.4767 79.2476C58.9883 80.2656 59.0589 83.3376 58.8764 83.5199C58.1409 84.2556 57.2052 84.179 55.1867 82.3959C53.1682 80.6128 52.1207 91.2348 54.5276 92.912C58.6411 95.7837 66.868 107.194 77.7371 107.194C90.3127 107.194 101.959 94.0772 101.959 84.4497C101.959 74.8223 99.134 71.1736 99.3224 63.1056C99.4753 56.2736 104.448 53.0133 104.448 49.6002C104.448 46.7284 100.182 46.0281 98.781 46.0281C96.2976 46.0281 89.9303 49.2118 89.9303 57.5917C89.9303 60.8518 89.0005 63.8001 85.6639 63.8001C82.3272 63.8001 78.6022 59.2218 76.3482 55.6497" fill="url(#paint1_linear_222_2)"/>
<path d="M104.442 49.6002C104.442 48.0409 103.177 47.1227 101.8 46.6049C103.454 52.0836 95.068 52.319 95.068 70.9855C95.068 89.6519 84.1987 95.0835 79.6969 96.0192C75.195 96.9491 67.2624 97.2197 61.2247 89.8108C59.371 87.5333 56.8583 85.0618 54.0629 82.7256C52.8801 84.697 52.6271 91.5881 54.5279 92.912C58.6413 95.7839 66.8681 107.194 77.7374 107.194C90.313 107.194 101.959 94.0772 101.959 84.4498C101.959 74.8223 99.1343 71.1738 99.3226 63.1058C99.4756 56.2736 104.442 53.0134 104.442 49.6002Z" fill="url(#paint2_linear_222_2)"/>
<path d="M55.1867 82.3961C53.1683 80.613 48.3956 75.5285 45.2886 73.0392C42.1815 70.5559 39.4685 70.5853 37.6031 73.3276C35.7376 76.07 41.1752 80.8837 42.4168 82.1252C44.3176 84.026 52.1207 91.2349 54.5276 92.918" fill="url(#paint3_linear_222_2)"/>
<path d="M63.9197 72.5738C63.6842 73.1153 62.1012 73.4918 58.9529 70.067C56.5461 67.4483 50.1023 59.9216 46.3007 56.5084C42.4991 53.0954 39.545 51.6947 37.0616 53.4838C34.5782 55.2726 35.9906 58.9919 38.7682 62.0991C42.2049 65.9417 46.1595 69.861 49.9434 73.6273C52.9034 76.5696 59.6062 82.7898 58.8705 83.5254" fill="url(#paint4_linear_222_2)"/>
<path d="M49.9492 73.6216C52.7445 76.3992 58.8648 82.0897 58.9294 83.3432C59.8122 81.9662 58.1997 77.8705 56.4931 76.4346C46.6302 68.1311 37.1029 54.7433 35.8906 55.1435C35.3727 57.0914 36.6851 59.763 38.7683 62.0992C42.2049 65.9362 46.1595 69.8613 49.9492 73.6216Z" fill="url(#paint5_linear_222_2)"/>
<path d="M76.3424 55.6556C74.0886 52.0835 64.8494 40.5965 62.6014 37.3364C60.3476 34.0762 57.3228 34.0762 55.2278 35.5533C53.1329 37.0304 52.5091 39.9786 57.2287 46.2459C60.2064 50.2004 62.678 53.8372 68.6216 60.3928L75.5302 59.9103L76.3424 55.6556Z" fill="url(#paint6_linear_222_2)"/>
<path d="M67.5683 62.329C66.5621 61.3227 57.6349 50.7419 55.6164 48.4704C51.8326 44.2215 47.0365 35.1178 41.3165 39.1724C38.3094 41.3027 39.9395 44.3922 40.7927 45.6339C41.6461 46.8756 52.7447 59.6867 53.8333 60.7696C54.9221 61.8582 64.1553 72.0271 63.9258 72.5684" fill="url(#paint7_linear_222_2)"/>
<path d="M68.6157 60.3865C69.6985 61.5811 70.6694 63.1287 70.3635 63.629C73.9649 60.7337 66.3501 52.2244 62.0366 47.1164C58.6999 43.1618 57.7877 38.1304 55.3985 35.4351C55.3396 35.4705 55.2867 35.5116 55.2278 35.5469C53.1329 37.024 52.5091 39.9723 57.2287 46.2395C60.2004 50.1941 62.678 53.8368 68.6157 60.3865Z" fill="url(#paint8_linear_222_2)"/>
<path d="M53.8274 60.7753C54.916 61.8639 64.1492 72.0328 63.9197 72.5741C66.7737 68.7315 55.7105 57.4386 50.3553 51.7304C45.7122 46.7813 44.9178 42.4501 40.3865 40.0197C38.7034 42.0559 40.0393 44.551 40.7866 45.6396C41.64 46.8813 52.7445 59.6924 53.8274 60.7753Z" fill="url(#paint9_linear_222_2)"/>
<path d="M63.7135 72.8043C63.3899 73.0044 62.7249 73.0219 61.6952 72.4276C62.4602 73.0455 63.1663 73.2808 63.7135 72.8043Z" fill="url(#paint10_linear_222_2)"/>
<path d="M99.4341 47.1933C101.806 46.7696 102.224 47.0404 101.8 46.6049C100.646 46.1753 99.4105 46.0281 98.7751 46.0281C96.2916 46.0281 89.9243 49.2118 89.9243 57.5917C89.9243 60.8518 88.9946 63.8001 85.652 63.8001C84.3339 63.8001 82.9627 63.0881 81.6386 62.0053C87.4999 68.4962 92.0958 62.3819 92.7961 58.1919C93.4964 54.002 92.4783 48.4409 99.4341 47.1933Z" fill="url(#paint11_radial_222_2)"/>
<path d="M54.5099 36.1826C53.0623 37.8245 53.1094 40.7669 57.2229 46.2397C60.2006 50.1942 62.6722 53.831 68.6158 60.3866C69.7397 61.6283 70.7519 63.2585 70.3223 63.688C71.3169 56.897 61.6482 50.2177 58.5058 45.098C56.0165 41.0376 55.5222 38.6424 54.5099 36.1826Z" fill="url(#paint12_linear_222_2)"/>
<path d="M53.8274 60.7753C54.916 61.8639 64.1492 72.0328 63.9197 72.5741C65.9558 71.1206 64.567 68.855 61.4187 65.7067C54.9631 59.2511 45.9771 50.5769 42.3639 43.4329C42.0226 42.7561 41.387 42.2559 40.6396 42.1617C38.6917 41.9087 40.1395 44.6922 40.7926 45.6396C41.64 46.8813 52.7445 59.6924 53.8274 60.7753Z" fill="url(#paint13_linear_222_2)"/>
<path d="M38.7683 62.0991C42.205 65.9418 46.1595 69.861 49.9434 73.6274C52.9034 76.5697 59.6062 82.7898 58.8706 83.5255C63.0252 80.0299 43.7291 67.3954 35.8848 55.1491C35.3727 57.0853 36.6851 59.7629 38.7683 62.0991Z" fill="url(#paint14_linear_222_2)"/>
<path d="M58.0233 84.2202C58.4175 84.0672 58.6235 83.8848 58.6882 83.6848C57.9762 84.232 57.0405 84.0378 55.1868 82.3959C53.1683 80.6128 48.3958 75.5285 45.2886 73.0392C43.9234 71.9506 42.6346 71.3444 41.4576 71.2384C43.1406 72.2918 42.358 72.6685 46.1008 75.5402C48.1134 77.082 55.4575 85.2265 58.0233 84.2202Z" fill="url(#paint15_linear_222_2)"/>
<path d="M53.1331 65.5892C55.8576 68.9082 61.1774 74.3869 63.5667 72.8745C62.9076 73.0982 61.4069 72.7333 58.9589 70.0676C56.5521 67.4489 50.1083 59.9222 46.3067 56.509C43.2289 53.7432 40.7044 52.3014 38.5388 52.8016C44.8414 54.8731 50.5496 62.4526 53.1331 65.5892Z" fill="url(#paint16_linear_222_2)"/>
<path d="M56.0813 51.3066C60.4301 56.038 66.8858 65.4242 70.1576 63.7824C69.6221 63.9471 68.4687 63.2351 67.5683 62.3288C66.5621 61.3225 57.6349 50.7418 55.6164 48.4703C52.9919 45.5278 49.8905 40.2551 46.3243 38.6427C49.9199 41.4792 52.5563 47.4757 56.0813 51.3066Z" fill="url(#paint17_linear_222_2)"/>
<path d="M81.6387 62.0109C81.6447 62.0109 81.6447 62.0109 81.6387 62.0109C79.6085 60.3513 77.7019 57.8151 76.3366 55.6554C74.0886 52.0833 64.8496 40.5963 62.6016 37.3361C61.9131 36.3416 61.1598 35.6531 60.3772 35.2176C61.4246 36.7241 62.0189 38.872 64.3904 41.5319C68.192 45.7983 73.1646 53.4839 74.8713 56.1261C76.5719 58.7566 79.326 64.3236 81.6387 62.0109Z" fill="url(#paint18_linear_222_2)"/>
<path d="M94.091 99.8973C92.6786 96.4606 90.6131 94.3657 87.6296 96.3311C79.4909 101.692 70.1284 99.8797 58.3882 90.3934C47.9192 81.9253 42.5052 75.8758 37.4091 73.6866C36.185 76.4701 41.2224 80.9367 42.4111 82.1254C44.3119 84.0262 52.115 91.235 54.522 92.9181C58.6354 95.7898 66.8623 107.2 77.7314 107.2C83.8103 107.194 89.6598 104.14 94.091 99.8973Z" fill="url(#paint19_linear_222_2)"/>
<path d="M99.3167 63.1056C99.4696 56.2734 104.442 53.0133 104.442 49.6001C104.442 48.5938 103.919 47.8583 103.177 47.3228C104.083 49.9827 101.924 52.3425 98.6988 56.3559C95.2032 60.7047 94.4324 67.4545 96.8334 74.2102C99.2401 80.9659 96.2095 90.2815 91.3193 93.2298C86.429 96.1781 79.9323 109.142 61.3305 94.495C61.3247 94.4891 61.3247 94.4891 61.3188 94.4831C60.183 93.4299 59.059 92.4942 57.9233 91.788C50.0672 86.9213 45.5888 82.5431 42.2051 78.8651C41.5402 78.1413 39.7512 75.3696 37.6209 76.2816C38.686 78.6944 41.5519 81.2661 42.4111 82.1252C44.3119 84.026 52.115 91.2348 54.5219 92.9178C54.8338 93.1356 55.1751 93.4063 55.534 93.7182C55.6283 93.8006 55.7224 93.8829 55.8166 93.9653C55.8401 93.9889 55.8695 94.0124 55.893 94.0301C55.9519 94.083 56.0167 94.1419 56.0755 94.1949C56.0873 94.2067 56.1049 94.2184 56.1167 94.2361C58.5588 96.4545 61.919 100.127 66.0384 102.993C66.0384 102.993 66.0443 102.993 66.0443 102.998C66.4033 103.252 66.774 103.499 67.1447 103.734C67.1506 103.74 67.1565 103.74 67.1624 103.746C67.5331 103.981 67.9098 104.211 68.2864 104.428C68.2922 104.428 68.2922 104.434 68.2981 104.434C71.1464 106.07 74.3065 107.2 77.7197 107.2C90.2953 107.2 101.941 94.083 101.941 84.4556C101.941 74.8281 99.1343 71.1796 99.3167 63.1056Z" fill="url(#paint20_radial_222_2)"/>
</mask>
<g mask="url(#mask0_222_2)">
<circle cx="68.75" cy="64" r="54" fill="url(#paint21_linear_222_2)"/>
</g>
</g>
<defs>
<filter id="filter0_i_222_2" x="8" y="8" width="112" height="116" filterUnits="userSpaceOnUse" color-interpolation-filters="sRGB">
<feFlood flood-opacity="0" result="BackgroundImageFix"/>
<feBlend mode="normal" in="SourceGraphic" in2="BackgroundImageFix" result="shape"/>
<feColorMatrix in="SourceAlpha" type="matrix" values="0 0 0 0 0 0 0 0 0 0 0 0 0 0 0 0 0 0 127 0" result="hardAlpha"/>
<feOffset dy="4"/>
<feGaussianBlur stdDeviation="2"/>
<feComposite in2="hardAlpha" operator="arithmetic" k2="-1" k3="1"/>
<feColorMatrix type="matrix" values="0 0 0 0 0 0 0 0 0 0 0 0 0 0 0 0 0 0 0.25 0"/>
<feBlend mode="normal" in2="shape" result="effect1_innerShadow_222_2"/>
</filter>
<linearGradient id="paint0_linear_222_2" x1="64" y1="0" x2="64" y2="128" gradientUnits="userSpaceOnUse">
<stop stop-color="#CB02C5"/>
<stop offset="0.244792" stop-color="#C101DA"/>
<stop offset="0.510417" stop-color="#B600F0"/>
<stop offset="0.744792" stop-color="#8900D9"/>
<stop offset="1" stop-color="#5800BF"/>
</linearGradient>
<linearGradient id="paint1_linear_222_2" x1="95.845" y1="109.685" x2="85.4823" y2="85.4063" gradientUnits="userSpaceOnUse">
<stop offset="0.00132565" stop-color="#FFCB4B"/>
<stop offset="1" stop-color="#FFD748"/>
</linearGradient>
<linearGradient id="paint2_linear_222_2" x1="97.9077" y1="92.799" x2="76.1727" y2="66.8723" gradientUnits="userSpaceOnUse">
<stop offset="0.00132565" stop-color="#FFCB4B"/>
<stop offset="1" stop-color="#FFD748"/>
</linearGradient>
<linearGradient id="paint3_linear_222_2" x1="39.8118" y1="75.5378" x2="52.6199" y2="84.9693" gradientUnits="userSpaceOnUse">
<stop offset="0.00132565" stop-color="#FFCB4B"/>
<stop offset="1" stop-color="#FFD748"/>
</linearGradient>
<linearGradient id="paint4_linear_222_2" x1="35.1481" y1="50.5742" x2="57.6206" y2="74.0946" gradientUnits="userSpaceOnUse">
<stop offset="0.00132565" stop-color="#FFCB4B"/>
<stop offset="1" stop-color="#FFD748"/>
</linearGradient>
<linearGradient id="paint5_linear_222_2" x1="52.3996" y1="64.5415" x2="44.971" y2="71.5395" gradientUnits="userSpaceOnUse">
<stop stop-color="#FFBC47" stop-opacity="0"/>
<stop offset="1" stop-color="#FFA754"/>
</linearGradient>
<linearGradient id="paint6_linear_222_2" x1="59.4208" y1="39.4778" x2="72.4618" y2="59.9708" gradientUnits="userSpaceOnUse">
<stop offset="0.00132565" stop-color="#FFCB4B"/>
<stop offset="1" stop-color="#FFD748"/>
</linearGradient>
<linearGradient id="paint7_linear_222_2" x1="45.9593" y1="42.8822" x2="63.6578" y2="66.7907" gradientUnits="userSpaceOnUse">
<stop offset="0.00132565" stop-color="#FFCB4B"/>
<stop offset="1" stop-color="#FFD748"/>
</linearGradient>
<linearGradient id="paint8_linear_222_2" x1="67.0079" y1="45.7666" x2="55.8299" y2="55.8579" gradientUnits="userSpaceOnUse">
<stop stop-color="#FFBC47" stop-opacity="0"/>
<stop offset="1" stop-color="#FFA754"/>
</linearGradient>
<linearGradient id="paint9_linear_222_2" x1="56.7259" y1="52.9565" x2="41.3562" y2="64.1926" gradientUnits="userSpaceOnUse">
<stop stop-color="#FFBC47" stop-opacity="0"/>
<stop offset="1" stop-color="#FFA754"/>
</linearGradient>
<linearGradient id="paint10_linear_222_2" x1="68.1753" y1="68.6185" x2="52.8055" y2="79.8546" gradientUnits="userSpaceOnUse">
<stop stop-color="#FFBC47" stop-opacity="0"/>
<stop offset="1" stop-color="#FFA754"/>
</linearGradient>
<radialGradient id="paint11_radial_222_2" cx="0" cy="0" r="1" gradientUnits="userSpaceOnUse" gradientTransform="translate(88.343 50.3762) scale(18.4519)">
<stop stop-color="#FFBC47" stop-opacity="0"/>
<stop offset="1" stop-color="#FFA754"/>
</radialGradient>
<linearGradient id="paint12_linear_222_2" x1="69.0536" y1="43.785" x2="59.5057" y2="52.6342" gradientUnits="userSpaceOnUse">
<stop offset="0.3118" stop-color="#FFBC47" stop-opacity="0"/>
<stop offset="1" stop-color="#FF8900"/>
</linearGradient>
<linearGradient id="paint13_linear_222_2" x1="61.7423" y1="48.5815" x2="49.167" y2="59.9148" gradientUnits="userSpaceOnUse">
<stop offset="0.3118" stop-color="#FFBC47" stop-opacity="0"/>
<stop offset="1" stop-color="#FF8900"/>
</linearGradient>
<linearGradient id="paint14_linear_222_2" x1="57.4923" y1="60.8395" x2="41.9674" y2="73.8805" gradientUnits="userSpaceOnUse">
<stop offset="0.3118" stop-color="#FFBC47" stop-opacity="0"/>
<stop offset="1" stop-color="#FF8900"/>
</linearGradient>
<linearGradient id="paint15_linear_222_2" x1="40.5523" y1="70.3134" x2="58.6002" y2="84.9845" gradientUnits="userSpaceOnUse">
<stop stop-color="#FFBC47" stop-opacity="0"/>
<stop offset="1" stop-color="#FFBC47"/>
</linearGradient>
<linearGradient id="paint16_linear_222_2" x1="44.0067" y1="52.1284" x2="58.0957" y2="73.5529" gradientUnits="userSpaceOnUse">
<stop stop-color="#FFBC47" stop-opacity="0"/>
<stop offset="1" stop-color="#FFBC47"/>
</linearGradient>
<linearGradient id="paint17_linear_222_2" x1="55.0426" y1="53.6586" x2="59.0015" y2="50.6312" gradientUnits="userSpaceOnUse">
<stop stop-color="#FFBC47" stop-opacity="0"/>
<stop offset="1" stop-color="#FFA754"/>
</linearGradient>
<linearGradient id="paint18_linear_222_2" x1="74.5785" y1="65.619" x2="69.2999" y2="40.4684" gradientUnits="userSpaceOnUse">
<stop stop-color="#FFBC47" stop-opacity="0"/>
<stop offset="1" stop-color="#FFBC47"/>
</linearGradient>
<linearGradient id="paint19_linear_222_2" x1="62.5288" y1="89.7574" x2="54.6111" y2="97.0349" gradientUnits="userSpaceOnUse">
<stop offset="0.3118" stop-color="#FFBC47" stop-opacity="0"/>
<stop offset="1" stop-color="#FF8900"/>
</linearGradient>
<radialGradient id="paint20_radial_222_2" cx="0" cy="0" r="1" gradientUnits="userSpaceOnUse" gradientTransform="translate(67.773 65.7063) rotate(48.1401) scale(53.484 48.5467)">
<stop offset="0.6134" stop-color="#FFBC47" stop-opacity="0"/>
<stop offset="1" stop-color="#FF8900"/>
</radialGradient>
<linearGradient id="paint21_linear_222_2" x1="69.1048" y1="118" x2="68.3952" y2="10" gradientUnits="userSpaceOnUse">
<stop stop-color="#D404FF"/>
<stop offset="1" stop-color="#8B00E7"/>
</linearGradient>
</defs>
</svg>
